<svg xmlns="http://www.w3.org/2000/svg" height="1200" width="1600" version="1.1" xmlnsXlink="http://www.w3.org/1999/xlink" xmlnsSvgjs="http://svgjs.com/svgjs"><rect fill="#f0e9f3" width="1600" height="1200"></rect><g><path d="M975.8 1011.3V653.4C975.8 631.1 993.9 612.9 1016.3 612.9H1285.8C1308.1 612.9 1326.3 631 1326.3 653.4V1011.3C1326.3 1033.6 1308.2 1051.8 1285.8 1051.8H1016.3C993.9 1051.7 975.8 1033.6 975.8 1011.3Z" fill="#c1b098" opacity="1" stroke-width="4" stroke="none"></path></g><g><path d="M708.9 872.9H1002" stroke="#2c4e5b" stroke-width="4" stroke-linecap="round" stroke-linejoin="round" opacity="1" fill="none"></path><path d="M977.3 909.8C997.96 909.8 1014.7 893.05 1014.7 872.4 1014.7 851.75 997.96 835 977.3 835 956.65 835 939.9 851.75 939.9 872.4 939.9 893.05 956.65 909.8 977.3 909.8Z" fill="#2c4e5b" opacity="1" stroke-width="4" stroke="none"></path></g><g><path d="M792.1 872.9V951.1C792.1 966.8 804.8 979.5 820.5 979.5H975" stroke="#2c4e5b" stroke-width="4" stroke-linecap="round" stroke-linejoin="round" opacity="1" fill="none"></path><path d="M792.6 884.5C799.28 884.5 804.7 879.08 804.7 872.4 804.7 865.72 799.28 860.3 792.6 860.3 785.92 860.3 780.5 865.72 780.5 872.4 780.5 879.08 785.92 884.5 792.6 884.5Z" fill="#c1b098" opacity="1" stroke-width="4" stroke="none"></path></g><g><path d="M452.4 632.2H666.1C688.4 632.2 706.6 650.3 706.6 672.7V886.4C706.6 908.7 688.5 926.9 666.1 926.9H452.4C430.1 926.9 411.9 908.8 411.9 886.4V672.6C411.9 650.3 430 632.2 452.4 632.2Z" fill="#c1b098" opacity="1" stroke-width="4" stroke="none"></path></g><g><path d="M1052.13 923.16H1249.79C1265.02 923.16 1277.36 935.5 1277.36 950.72 1277.36 965.95 1265.02 978.29 1249.79 978.29H1052.13C1036.9 978.29 1024.56 965.95 1024.56 950.72 1024.49 935.5 1036.83 923.16 1052.13 923.16Z" fill="#cecece" opacity="1" stroke-width="4" stroke="none"></path><path d="M1138.9 923.16H1209.68L1186.56 946.71H1115.78L1138.9 923.16Z" fill="#363636" opacity="0.2" stroke-width="4" stroke="none"></path><path d="M1186.56 823.48H1115.78V946.71H1186.56V823.48Z" fill="#ffffff" opacity="1" stroke-width="4" stroke="none"></path><path d="M1155.26 846.11L1224.34 870.22C1235.48 874.1 1245.63 862.46 1240.28 851.96L1162.59 700.4C1159.28 693.98 1151.45 691.44 1145.04 694.76 1142.57 696.03 1140.6 698 1139.4 700.4L1061.64 851.96C1056.28 862.46 1066.44 874.1 1077.57 870.22L1146.66 846.11C1149.41 845.12 1152.44 845.12 1155.26 846.11Z" fill="#ffffff" opacity="1" stroke-width="4" stroke="none"></path></g><g><path d="M619.9 766.3C618.1 766.3 616.3 766.4 614.6 766.7 607 736.1 576.1 717.5 545.5 725.1 525 730.2 509 746.2 503.9 766.7 484.5 763.8 466.3 777.1 463.4 796.5 460.5 815.9 473.8 834.1 493.2 837 495 837.3 496.7 837.4 498.5 837.4H619.9C639.6 837.4 655.5 821.4 655.5 801.8 655.4 782.3 639.5 766.4 619.9 766.3Z" fill="#ffffff" opacity="1" stroke-width="4" stroke="none"></path></g><g><path d="M1293.7 685.2H1401.5C1423.8 685.2 1423.1 703.6 1423.1 726L1442 810.6V833.5C1442 855.8 1423.9 874 1401.5 874H1293.7C1271.4 874 1253.2 855.9 1253.2 833.5V810.6L1263.6 723.1C1263.7 700.8 1271.4 685.2 1293.7 685.2Z" fill="#2c4e5b" opacity="1" stroke-width="4" stroke="none"></path><path d="M1293.7 662.3H1401.5C1423.8 662.3 1442 680.4 1442 702.8V810.6C1442 832.9 1423.9 851.1 1401.5 851.1H1293.7C1271.4 851.1 1253.2 833 1253.2 810.6V702.7C1253.3 680.4 1271.4 662.3 1293.7 662.3Z" fill="#114a8a" opacity="1" stroke-width="4" stroke="none"></path></g><g><path d="M1286.31 747.33C1308.45 747.33 1300.49 802.94 1319.55 802.94 1334.01 802.94 1328.87 762.43 1347.92 762.43 1384.26 762.43 1371.84 716.77 1409.54 716.77" stroke="#ffffff" stroke-width="4" stroke-linecap="round" opacity="1" fill="none"></path><path d="M1286.08 754.88C1290.25 754.88 1293.63 751.5 1293.63 747.33 1293.63 743.16 1290.25 739.78 1286.08 739.78 1281.91 739.78 1278.53 743.16 1278.53 747.33 1278.53 751.5 1281.91 754.88 1286.08 754.88Z" fill="#ffffff" opacity="1" stroke-width="4" stroke="none"></path><path d="M1347.88 769.93C1352.05 769.93 1355.43 766.55 1355.43 762.38 1355.43 758.21 1352.05 754.83 1347.88 754.83 1343.71 754.83 1340.33 758.21 1340.33 762.38 1340.33 766.55 1343.71 769.93 1347.88 769.93Z" fill="#ffffff" opacity="1" stroke-width="4" stroke="none"></path><path d="M1409.49 724.27C1413.66 724.27 1417.04 720.9 1417.04 716.73 1417.04 712.56 1413.66 709.18 1409.49 709.18 1405.32 709.18 1401.95 712.56 1401.95 716.73 1401.95 720.9 1405.32 724.27 1409.49 724.27Z" fill="#ffffff" opacity="1" stroke-width="4" stroke="none"></path></g><g><path d="M706.68 226.48L764.98 226.48C771.08 226.48 775.99 231.39 775.99 237.49L775.99 410.33C775.99 416.43 771.08 421.34 764.98 421.34L673.23 421.34" stroke="#2c4e5b" stroke-width="4" stroke-linecap="round" stroke-linejoin="round" opacity="1" fill="none"></path><path d="M698.53 226.26C698.53 235.32 705.87 242.66 714.92 242.66 723.98 242.66 731.32 235.32 731.32 226.26 731.32 217.21 723.98 209.87 714.92 209.87 705.87 209.87 698.53 217.21 698.53 226.26Z" fill="#2c4e5b" opacity="1" stroke-width="4" stroke="none"></path><path d="M770.46 373.07C770.46 376 772.84 378.38 775.77 378.38 778.7 378.38 781.07 376 781.07 373.07 781.07 370.14 778.7 367.77 775.77 367.77 772.84 367.77 770.46 370.14 770.46 373.07Z" fill="#2c4e5b" opacity="1" stroke-width="4" stroke="none"></path></g><g><path d="M707 424.4H1005.6C1027.9 424.4 1016.1 443.7 1016.1 466.1L1046.1 739.2V763.5C1046.1 785.8 1028 804 1005.6 804H707C684.7 804 666.5 785.9 666.5 763.5V743.1L683.8 465.4C683.8 443 684.6 424.4 707 424.4Z" fill="#2c4e5b" opacity="1" stroke-width="4" stroke="none"></path><path d="M707 400.1H1005.6C1027.9 400.1 1046.1 418.2 1046.1 440.6V739.2C1046.1 761.5 1028 779.7 1005.6 779.7H707C684.7 779.7 666.5 761.6 666.5 739.2V440.5C666.5 418.2 684.6 400.1 707 400.1Z" fill="#ffffff" opacity="1" stroke-width="4" stroke="none"></path></g><g><path d="M462.94 532.24C435.82 532.24 413.83 510.25 413.83 483.12 413.83 456 435.82 434.01 462.94 434.01 490.07 434.01 512.06 456 512.06 483.12 512.06 510.25 490.07 532.24 462.94 532.24Z" fill="#ffaa32" opacity="1" stroke-width="4" stroke="none"></path><path d="M348.15 632.78C328.04 632.78 311.75 616.48 311.75 596.38 311.75 576.27 328.04 559.97 348.15 559.97 368.25 559.97 384.55 576.27 384.55 596.38 384.55 616.48 368.25 632.78 348.15 632.78Z" fill="#ffffff" opacity="1" stroke-width="4" stroke="none"></path></g><g><path d="M1190.11 479.43C1211.84 479.43 1229.47 461.8 1229.47 440.08 1229.47 418.35 1211.84 400.72 1190.11 400.72 1168.39 400.72 1150.76 418.35 1150.76 440.08 1150.76 461.8 1168.39 479.43 1190.11 479.43Z" fill="#ffaa32" opacity="1" stroke-width="4" stroke="none"></path></g><g><path d="M206.7 357.5H564.6C586.9 357.5 539.6 378.7 539.6 401.1L605.1 643.2V667.5C605.1 689.8 587 708 564.6 708H206.7C184.4 708 166.2 689.9 166.2 667.5V647.6L199.7 401.1C199.7 378.8 184.4 357.5 206.7 357.5Z" fill="#2c4e5b" opacity="1" stroke-width="4" stroke="none"></path><path d="M206.7 333.2H564.6C586.9 333.2 605.1 351.3 605.1 373.7V643.2C605.1 665.5 587 683.7 564.6 683.7H206.7C184.4 683.7 166.2 665.6 166.2 643.2V373.7C166.2 351.3 184.4 333.2 206.7 333.2Z" fill="#ffaa32" opacity="1" stroke-width="4" stroke="none"></path></g><g><path d="M1139.6 218.7H1371.3C1393.6 218.7 1382.1 235.8 1382.1 258.2L1411.8 466.6V490.9C1411.8 513.2 1393.7 531.4 1371.3 531.4H1139.6C1117.3 531.4 1099.1 513.3 1099.1 490.9V466.6L1142.5 271.7C1142.5 249.3 1117.2 218.7 1139.6 218.7Z" fill="#2c4e5b" opacity="1" stroke-width="4" stroke="none"></path><path d="M1139.1 194.4H1370.8C1393.1 194.4 1411.3 212.5 1411.3 234.9V466.6C1411.3 488.9 1393.2 507.1 1370.8 507.1H1139.1C1116.8 507.1 1098.6 489 1098.6 466.6V234.8C1098.7 212.5 1116.8 194.4 1139.1 194.4Z" fill="#ffaa32" opacity="1" stroke-width="4" stroke="none"></path></g><g><path d="M282.1 413.94L236.16 532.94 353.59 646.59 512.75 549.66 500.45 484.38 436.22 426.13 282.1 413.94Z" stroke="#2c4e5b" stroke-width="4" opacity="1" fill="none"></path><path d="M286.31 418.46L341.29 501.72 353.59 641.22" stroke="#2c4e5b" stroke-width="4" opacity="1" fill="none"></path><path d="M236.16 532.94L341.29 501.72 493.2 484.38" stroke="#2c4e5b" stroke-width="4" opacity="1" fill="none"></path><path d="M431.17 428.97L343.6 497.2" stroke="#2c4e5b" stroke-width="4" opacity="1" fill="none"></path><path d="M348.33 505.93L507.5 546.61" stroke="#2c4e5b" stroke-width="4" stroke-linecap="round" stroke-linejoin="round" opacity="1" fill="none"></path><path d="M236.16 545.56C242.9 545.56 248.36 540.1 248.36 533.36 248.36 526.63 242.9 521.17 236.16 521.17 229.42 521.17 223.97 526.63 223.97 533.36 223.97 540.1 229.42 545.56 236.16 545.56Z" fill="#ffffff" opacity="1" stroke-width="4" stroke="none"></path><path d="M341.29 513.92C348.03 513.92 353.48 508.46 353.48 501.72 353.48 494.98 348.03 489.53 341.29 489.53 334.55 489.53 329.09 494.98 329.09 501.72 329.09 508.46 334.55 513.92 341.29 513.92Z" fill="#ffffff" opacity="1" stroke-width="4" stroke="none"></path><path d="M517.44 560.93C523.66 558.35 526.62 551.22 524.04 544.99 521.46 538.78 514.33 535.81 508.11 538.4 501.88 540.98 498.93 548.1 501.5 554.33 504.08 560.55 511.22 563.5 517.44 560.93Z" fill="#ffffff" opacity="1" stroke-width="4" stroke="none"></path><path d="M353.59 658.78C360.33 658.78 365.78 653.33 365.78 646.59 365.78 639.85 360.33 634.39 353.59 634.39 346.85 634.39 341.39 639.85 341.39 646.59 341.39 653.33 346.85 658.78 353.59 658.78Z" fill="#ffffff" opacity="1" stroke-width="4" stroke="none"></path><path d="M500.45 496.57C507.19 496.57 512.65 491.11 512.65 484.38 512.65 477.64 507.19 472.18 500.45 472.18 493.71 472.18 488.26 477.64 488.26 484.38 488.26 491.11 493.71 496.57 500.45 496.57Z" fill="#ffffff" opacity="1" stroke-width="4" stroke="none"></path><path d="M282.1 426.13C288.84 426.13 294.3 420.68 294.3 413.94 294.3 407.2 288.84 401.75 282.1 401.75 275.36 401.75 269.91 407.2 269.91 413.94 269.91 420.68 275.36 426.13 282.1 426.13Z" fill="#ffffff" opacity="1" stroke-width="4" stroke="none"></path><path d="M436.22 438.33C442.96 438.33 448.41 432.87 448.41 426.13 448.41 419.4 442.96 413.94 436.22 413.94 429.48 413.94 424.02 419.4 424.02 426.13 424.02 432.87 429.48 438.33 436.22 438.33Z" fill="#ffffff" opacity="1" stroke-width="4" stroke="none"></path></g><g><path d="M1253.2 249.3C1213.5 250.3 1182.2 283.2 1183.1 322.8 1183.6 344.4 1193.9 364.7 1211 377.9 1222.1 386.4 1228.6 399.5 1228.7 413.4L1232.5 421.4H1274.9L1281.2 413.4C1281.2 399.6 1287.6 386.5 1298.6 378.1 1330.1 354 1336.2 309 1312.1 277.4 1298.1 259.2 1276.2 248.7 1253.2 249.3Z" fill="#ffffff" opacity="1" stroke-width="4" stroke="none"></path><path d="M1228.7 413.5V431.8C1228.7 446.3 1240.4 458 1254.9 458 1269.4 458 1281.1 446.3 1281.1 431.8V413.5H1228.7Z" fill="#ffbd61" opacity="1" stroke-width="4" stroke="none"></path><path d="M1228.7 413.4H1281.2" stroke="#52412a" stroke-width="4" stroke-linecap="round" stroke-linejoin="round" opacity="1" fill="none"></path><path d="M1228.7 427.9H1281.1" stroke="#52412a" stroke-width="4" stroke-linecap="round" stroke-linejoin="round" opacity="1" fill="none"></path><path d="M1246.1 413.4V392.5C1246.1 378.5 1240.6 365 1230.7 355.1 1223.2 347.6 1219.1 337.5 1219.1 326.9 1219.1 319.4 1225.2 313.4 1232.6 313.4 1240.1 313.4 1246.1 319.5 1246.1 326.9V334.7C1246.1 339.5 1250 343.4 1254.8 343.4 1259.6 343.4 1263.5 339.5 1263.5 334.7V326.9C1263.5 319.4 1269.6 313.4 1277 313.4H1277.2C1284.7 313.4 1290.7 319.5 1290.7 326.9 1290.7 337.5 1286.5 347.7 1279 355.2 1269.1 365.2 1263.5 378.6 1263.5 392.7L1263.6 413.5" stroke="#353535" stroke-width="4" stroke-linecap="round" stroke-linejoin="round" opacity="1" fill="none"></path></g><g><path d="M315.25 295.32V194.08C315.25 183.5 323.78 174.98 334.36 174.98H634.5C645.08 174.98 653.6 183.5 653.6 194.08V353.4" stroke="#2c4e5b" stroke-width="4" stroke-linecap="round" stroke-linejoin="round" opacity="1" fill="none"></path><path d="M314.87 309.48C330.6 309.48 343.34 296.74 343.34 281.01 343.34 265.29 330.6 252.54 314.87 252.54 299.15 252.54 286.4 265.29 286.4 281.01 286.4 296.74 299.15 309.48 314.87 309.48Z" fill="#2c4e5b" opacity="1" stroke-width="4" stroke="none"></path><path d="M569.8 184.57C574.88 184.57 579.01 180.44 579.01 175.36 579.01 170.27 574.88 166.15 569.8 166.15 564.71 166.15 560.59 170.27 560.59 175.36 560.59 180.44 564.71 184.57 569.8 184.57Z" fill="#2c4e5b" opacity="1" stroke-width="4" stroke="none"></path></g><g><path d="M886.06 680.25L886.61 626.89 912.35 652.11V706.02L886.06 680.25Z" fill="#ffbd61" opacity="1" stroke-width="4" stroke="none"></path><path d="M816.2 680.25L814.35 628.18 789.87 652.11V706.02L816.2 680.25Z" fill="#ffbd61" opacity="1" stroke-width="4" stroke="none"></path><path d="M811.95 684.42V630.51L805.71 636.6 799.65 696.46 811.95 684.42Z" fill="#f8b456" opacity="0.3" stroke-width="4" stroke="none"></path><path d="M890.3 684.42V630.51L896.51 636.6 902.6 696.46 890.3 684.42Z" fill="#f8b456" opacity="0.3" stroke-width="4" stroke="none"></path><path d="M821.81 677.59H880.52V690.66C880.52 695.75 876.38 699.93 871.25 699.93H831.08C825.98 699.93 821.81 695.79 821.81 690.66V677.59 677.59Z" fill="#c1b098" opacity="1" stroke-width="4" stroke="none"></path><path d="M880.52 677.59H821.81V688.3H880.52V677.59Z" fill="#3b3b3b" opacity="0.3" stroke-width="4" stroke="none"></path><path d="M851.13 449.62C840.05 449.62 826.72 475.54 818.82 493.52 814.28 503.9 811.91 515.08 811.91 526.38L811.88 544.66 838.46 564.6 811.88 584.54 811.91 684.38H890.34L890.52 584.54 857.14 564.6 890.52 544.66 890.34 526.42C890.34 515.08 888.01 503.9 883.43 493.56 875.53 475.54 862.2 449.62 851.13 449.62Z" fill="#ffbd61" opacity="1" stroke-width="4" stroke="none"></path><path d="M920.17 624.27H920.43C926.75 624.27 931.84 629.36 931.84 635.68V724.85C931.84 731.17 926.75 736.26 920.43 736.26H920.17C913.86 736.26 908.76 731.17 908.76 724.85V635.68C908.76 629.4 913.86 624.27 920.17 624.27Z" fill="#c1b098" opacity="1" stroke-width="4" stroke="none"></path><path d="M782.08 736.26H781.82C775.5 736.26 770.41 731.17 770.41 724.85V635.68C770.41 629.36 775.5 624.27 781.82 624.27H782.08C788.39 624.27 793.49 629.36 793.49 635.68V724.85C793.45 731.17 788.35 736.26 782.08 736.26Z" fill="#c1b098" opacity="1" stroke-width="4" stroke="none"></path><path d="M838.46 613.56V658.87H863.83V613.56C863.83 606.55 858.14 600.9 851.16 600.9 844.15 600.86 838.46 606.55 838.46 613.56Z" fill="#ffbd61" opacity="1" stroke-width="4" stroke="none"></path><path d="M851.13 600.86C844.11 600.86 838.46 606.55 838.46 613.52V622.76C838.46 615.74 844.15 610.09 851.13 610.09 858.14 610.09 863.79 615.78 863.79 622.76V613.52C863.83 606.55 858.14 600.86 851.13 600.86Z" fill="#f8b456" opacity="0.3" stroke-width="4" stroke="none"></path><path d="M851.24 523.43C858.19 523.43 863.83 517.79 863.83 510.84 863.83 503.89 858.19 498.25 851.24 498.25 844.28 498.25 838.65 503.89 838.65 510.84 838.65 517.79 844.28 523.43 851.24 523.43Z" fill="#ffbd61" opacity="1" stroke-width="4" stroke="none"></path><path d="M851.24 506.37C856.63 506.37 861.43 509.8 863.16 514.9 865.42 508.33 861.87 501.16 855.3 498.91 848.73 496.66 841.56 500.2 839.31 506.78 838.42 509.4 838.42 512.28 839.31 514.9 841.05 509.8 845.81 506.37 851.24 506.37Z" fill="#f8b456" opacity="0.3" stroke-width="4" stroke="none"></path><path d="M890.52 544.66H811.88V584.54H890.52V544.66Z" fill="#c1b098" opacity="1" stroke-width="4" stroke="none"></path><path d="M811.88 544.66H890.52" stroke="#3b3b3b" stroke-width="4" stroke-linecap="round" stroke-linejoin="round" opacity="1" fill="none"></path><path d="M811.95 564.6H890.52" stroke="#3b3b3b" stroke-width="4" stroke-linecap="round" stroke-linejoin="round" opacity="1" fill="none"></path><path d="M811.88 584.54H890.52" stroke="#3b3b3b" stroke-width="4" stroke-linecap="round" stroke-linejoin="round" opacity="1" fill="none"></path><path d="M811.95 658.76H890.34" stroke="#3f3a32" stroke-width="4" stroke-linecap="round" stroke-linejoin="round" opacity="1" fill="none"></path><path d="M826.46 676.85C829.01 676.85 831.08 674.78 831.08 672.23 831.08 669.69 829.01 667.62 826.46 667.62 823.91 667.62 821.84 669.69 821.84 672.23 821.84 674.78 823.91 676.85 826.46 676.85Z" fill="#ffffff" opacity="1" stroke-width="4" stroke="none"></path><path d="M875.94 676.85C878.49 676.85 880.55 674.78 880.55 672.23 880.55 669.69 878.49 667.62 875.94 667.62 873.39 667.62 871.32 669.69 871.32 672.23 871.32 674.78 873.39 676.85 875.94 676.85Z" fill="#ffffff" opacity="1" stroke-width="4" stroke="none"></path><path d="M851.2 676.85C853.75 676.85 855.82 674.78 855.82 672.23 855.82 669.69 853.75 667.62 851.2 667.62 848.65 667.62 846.58 669.69 846.58 672.23 846.58 674.78 848.65 676.85 851.2 676.85Z" fill="#ffffff" opacity="1" stroke-width="4" stroke="none"></path><path d="M865.78 684.42V699.89" stroke="#3b3b3b" stroke-width="4" stroke-linecap="round" stroke-linejoin="round" opacity="1" fill="none"></path><path d="M851.13 684.42V699.89" stroke="#3b3b3b" stroke-width="4" stroke-linecap="round" stroke-linejoin="round" opacity="1" fill="none"></path><path d="M836.43 684.42V699.89" stroke="#3b3b3b" stroke-width="4" stroke-linecap="round" stroke-linejoin="round" opacity="1" fill="none"></path></g><g><path d="M453.3 137.9H625.8C648.1 137.9 622 162.9 622 185.3L666 325.4C666 347.7 657.5 391.3 635.1 391.3H436.4C414.1 391.3 412.8 353.1 412.8 330.7L438.7 183.1C438.7 161 430.9 137.9 453.3 137.9Z" fill="#2c4e5b" opacity="1" stroke-width="4" stroke="none"></path><path d="M453.3 113.6H625.8C648.1 113.6 666.3 131.7 666.3 154.1V326.6C666.3 348.9 648.2 367.1 625.8 367.1H453.3C431 367.1 412.8 349 412.8 326.6V154.1C412.8 131.7 430.9 113.6 453.3 113.6Z" fill="#114a8a" opacity="1" stroke-width="4" stroke="none"></path></g><g><path d="M577.87 213.83L625.06 247.07 577.87 280.3" stroke="#ffffff" stroke-width="4" stroke-linecap="round" stroke-linejoin="round" opacity="1" fill="none"></path><path d="M493.6 280.3L446.27 247.07 493.6 213.83" stroke="#ffffff" stroke-width="4" stroke-linecap="round" stroke-linejoin="round" opacity="1" fill="none"></path><path d="M546.5 212.24L524.83 281.89" stroke="#ffffff" stroke-width="4" stroke-linecap="round" stroke-linejoin="round" opacity="1" fill="none"></path></g><g><path d="M334.8 835.4H507.3C529.6 835.4 533.2 848.7 533.2 871.1L547.8 1024.2V1048.4C547.8 1070.7 529.7 1088.9 507.3 1088.9H334.8C312.5 1088.9 294.3 1070.8 294.3 1048.4V1024.2L319.1 876.6C319.1 854.2 312.4 835.4 334.8 835.4Z" fill="#2c4e5b" opacity="1" stroke-width="4" stroke="none"></path><path d="M334.8 811.2H507.3C529.6 811.2 547.8 829.3 547.8 851.7V1024.2C547.8 1046.5 529.7 1064.7 507.3 1064.7H334.8C312.5 1064.7 294.3 1046.6 294.3 1024.2V851.6C294.3 829.3 312.4 811.2 334.8 811.2Z" fill="#114a8a" opacity="1" stroke-width="4" stroke="none"></path></g><g><path d="M481.1 898.9L465.9 914.1C460.4 919.7 451.3 919.7 445.7 914.2 440.4 908.7 440.5 900 445.9 894.6L461.3 879.2C462.6 877.9 462.6 875.9 461.3 874.6 460.9 874.2 460.4 873.9 459.9 873.8 438.8 867.5 416.6 879.5 410.3 900.6 407.6 909.8 408.2 919.6 412.1 928.3L357.5 983C351.9 988.5 351.9 997.6 357.4 1003.2 362.9 1008.5 371.6 1008.4 377 1003L431.9 948.1C451.9 957.3 475.5 948.5 484.7 928.5 488.8 919.6 489.5 909.5 486.6 900.1 486.1 898.4 484.2 897.4 482.5 897.9 482 898.2 481.5 898.5 481.1 898.9Z" fill="#ffffff" opacity="1" stroke-width="4" stroke="none"></path></g></svg>